<?xml version="1.0" encoding="UTF-8" standalone="no"?>
<!DOCTYPE svg PUBLIC "-//W3C//DTD SVG 1.1//EN" "http://www.w3.org/Graphics/SVG/1.1/DTD/svg11.dtd">
<svg width="100%" height="100%" viewBox="0 0 4096 4096" version="1.1" xmlns="http://www.w3.org/2000/svg" xmlns:xlink="http://www.w3.org/1999/xlink" xml:space="preserve" style="fill-rule:evenodd;clip-rule:evenodd;stroke-linejoin:round;stroke-miterlimit:1.41421;">
    <path d="M4096,664.124L4096,664.124L4096,4096L4096,4096L4096,4096L0,4096L0,0L4096,0L4096,664.124ZM3488.12,664.124L3489.92,665.532L3329.16,686.577L3405.06,864.868L3206.34,754.678L3130.44,864.868L3054.54,754.678L2855.82,864.868L2931.72,686.577L2770.96,665.532L2884.82,576.387L2686.1,466.197L2931.72,466.197L2908.27,343.001L3054.54,398.096L3117.35,250.557C2055.93,534.272 1056.66,805.544 890.203,524.443C767.839,317.808 359.302,214.588 112.082,544.105C104.375,640.534 98.276,739.679 93.594,841.219C79.281,1151.59 1319.92,1526.42 2127.37,1152.32C2349.26,1049.52 2366.23,2100.53 2127.37,1970.06C1348.38,1544.55 749.841,1435.08 86.62,1912.71C24.191,2106.27 55.703,2261.81 102.134,2413.01C253.393,2805.71 728.406,2548.3 1142.6,2413.01C1335.59,2324.36 923.478,2975.93 1046.35,3064.12C1199.4,3173.97 1475.73,2412.74 1594.11,2663.23C1365.96,2989.51 1730.15,3320.56 2094.11,3163.23C2486.1,2993.78 2008.01,3647.73 1594.11,3663.23C1382.4,3671.16 1238.09,3671.47 1142.6,3669.27C945.595,3770.72 953.346,3864.44 1142.6,3951.3C1584.8,4041.98 1974.48,4095 2069.8,3951.3C2198.03,3618.89 2848.47,3785.32 2998.34,3163.23C3143,2562.75 3442.54,2333.31 3926.37,2314.31L3926.37,2007.42C3399.95,2102.45 2836.24,2230.28 2704.64,1978.14C2598.37,1814.88 2438.72,1260.36 2704.64,1160.4C3124.27,1069.32 3524.78,1111.76 3926.37,1146.56L3926.37,664.124L3488.12,664.124Z"/>
</svg>
