<?xml version="1.0" encoding="UTF-8" standalone="no"?>
<!DOCTYPE svg PUBLIC "-//W3C//DTD SVG 1.1//EN" "http://www.w3.org/Graphics/SVG/1.1/DTD/svg11.dtd">
<svg width="100%" height="100%" viewBox="0 0 4096 4096" version="1.1" xmlns="http://www.w3.org/2000/svg" xmlns:xlink="http://www.w3.org/1999/xlink" xml:space="preserve" style="fill-rule:evenodd;clip-rule:evenodd;stroke-linejoin:round;stroke-miterlimit:1.41421;">
    <path d="M4096,222.57L4096,222.57L4096,2514.84L4096,2514.84L4096,2737.41L4096,2737.41L4096,4096L3679.71,4096L390.036,4096L0,4096L0,2711.32L0,1372.71L0,0L4096,0L4096,222.57ZM3488.12,222.57L3489.92,223.042L3329.16,230.095L3405.06,289.846L3206.34,252.918L3130.44,289.846L3054.54,252.918L2855.82,289.846L2931.72,230.095L2770.96,223.042L2884.82,193.167L2686.1,156.238L2931.72,156.238L2908.27,114.951L3054.54,133.415L3117.35,83.97C2055.93,179.053 1056.66,269.965 890.203,175.759C767.839,106.508 359.302,71.916 112.082,182.348C104.375,214.665 98.276,247.892 93.594,281.921C79.281,385.935 1319.92,511.555 2127.37,386.181C2349.26,351.729 2366.23,703.96 2127.37,660.234C1348.38,517.633 749.841,480.944 86.62,641.013C24.191,705.883 55.703,758.008 102.134,808.681C253.393,940.288 728.406,854.02 1142.6,808.681C1335.59,778.971 923.478,997.334 1046.35,1026.89C1199.4,1063.71 1475.73,808.592 1594.11,892.539C1365.96,1001.89 1730.15,1112.83 2094.11,1060.11C2486.1,1003.32 2008.01,1222.48 1594.11,1227.67C1382.4,1230.33 1238.09,1230.44 1142.6,1229.7C945.595,1263.7 953.346,1295.11 1142.6,1324.21C1301.57,1348.67 1428.41,1308.6 1584.99,1349.51C1681.13,1435.07 1351.08,1421.61 1142.6,1413.2C953.346,1442.31 945.595,1473.72 1142.6,1507.72C1238.09,1506.98 1382.4,1507.09 1594.11,1509.75C2008.01,1514.94 2486.1,1734.1 2094.11,1677.31C1730.15,1624.59 1365.96,1735.53 1594.11,1844.88C1475.73,1928.82 1199.4,1673.71 1046.35,1710.53C923.478,1740.08 1335.59,1958.44 1142.6,1928.73C728.406,1883.39 253.393,1797.13 102.134,1928.73C55.703,1979.41 24.191,2031.53 86.62,2096.4C749.841,2256.47 1348.38,2219.78 2127.37,2077.18C2366.23,2033.46 2349.26,2385.68 2127.37,2351.23C1319.92,2225.86 79.281,2351.48 93.594,2455.49C98.276,2489.52 104.375,2522.75 112.082,2555.06C359.302,2665.49 767.696,2630.65 890.203,2561.65C1193.21,2391 2830.24,2611.01 2573.61,2754.97C1901.55,2718.83 1129.74,2655.73 910.714,2737.41C6.348,2947.03 -21.762,3995.3 281.458,4032.28C729.208,4086.89 2443.46,4119.6 3637.47,3460.96C4008.12,3256.51 4253.36,2515.91 3600.73,2737.41C3453.37,2787.43 3233.7,2577.88 3054.54,2603.99L2908.27,2622.46L2931.72,2581.17L2686.1,2581.17L2884.82,2544.24L2770.96,2514.37L2931.72,2507.32L2855.82,2447.57L3054.54,2484.49L3130.44,2447.57L3206.34,2484.49L3405.06,2447.57L3329.16,2507.32L3489.92,2514.37L3488.12,2514.84L3926.37,2514.84L3926.37,2353.16C3524.78,2364.82 3124.27,2379.05 2704.64,2348.52C2438.72,2315.02 2598.37,2129.19 2704.64,2074.47C2836.24,1989.97 3399.95,2032.81 3926.37,2064.66L3926.37,1961.81C3442.54,1955.44 3143,1878.55 2998.34,1677.31C2848.47,1468.83 2254.43,1464.45 2070.7,1436.13C1961.25,1419.26 1829.89,1382.69 1927.58,1350.22C1994.22,1345.87 2043.35,1337.58 2069.8,1324.21C2198.03,1212.81 2848.47,1268.59 2998.34,1060.11C3143,858.863 3442.54,781.97 3926.37,775.603L3926.37,672.755C3399.95,704.603 2836.24,747.442 2704.64,662.942C2598.37,608.227 2438.72,422.391 2704.64,388.889C3124.27,358.365 3524.78,372.588 3926.37,384.25L3926.37,222.57L3488.12,222.57ZM1914.33,3864.85C1199.76,3880.19 1090.16,3789.23 709.414,3729.61C682.328,3764.69 688.693,3796.26 742.277,3822.88C1317.79,3915.28 1482.01,3914.84 1914.33,3864.85Z" style="fill:rgb(51,51,51);"/>
    <path d="M410.606,3387.91L438.567,3620.28L575.377,3433.46L486.996,3649.13L695.997,3557.93L514.957,3699.1L740.148,3727.95L514.957,3756.81L695.997,3897.98L486.996,3806.78L575.377,4022.44L438.567,3835.63L410.606,4068L382.645,3835.63L245.835,4022.44L334.216,3806.78L125.215,3897.98L306.255,3756.81L81.064,3727.95L306.255,3699.1L125.215,3557.93L334.216,3649.13L245.835,3433.46L382.645,3620.28L410.606,3387.91Z" style="fill:rgb(255,128,0);"/>
    <ellipse cx="1906.56" cy="3198.45" rx="236.138" ry="189.451" style="fill:none;"/>
</svg>
