<?xml version="1.0" encoding="UTF-8" standalone="no"?>
<!DOCTYPE svg PUBLIC "-//W3C//DTD SVG 1.1//EN" "http://www.w3.org/Graphics/SVG/1.1/DTD/svg11.dtd">
<svg width="100%" height="100%" viewBox="0 0 4096 4096" version="1.1" xmlns="http://www.w3.org/2000/svg" xmlns:xlink="http://www.w3.org/1999/xlink" xml:space="preserve" style="fill-rule:evenodd;clip-rule:evenodd;stroke-linejoin:round;stroke-miterlimit:1.41421;">
    <path d="M0,4096L0,0L4096.06,0L4096.06,4096L0,4096ZM4004.58,277.529C3424.92,980.017 507.315,-197.292 81.479,243.3C-37.302,476.735 244.804,731.848 448.673,673.098C1039.52,393.684 2153.75,845.806 3072,1024L3458.29,1105.55C3914.39,1366.99 617.495,1534.41 87.384,1174.9C80.153,2057.39 63.815,2996.35 242.598,3589.91C457.341,4302.85 1924.42,3923.56 3380.99,3752.2C3716.37,3670.47 3868.29,3458.72 3934.46,3115.7C4009.91,2008.43 1125.49,2177.97 1024,2454.91C654.758,3462.46 -214.213,1264.4 1013.19,1914.99C1409.76,2125.2 3798.21,2204.1 3971.45,1210.96C3973.36,923.985 3981.88,612.874 4004.58,277.529Z" style="fill:rgb(0,63,89);"/>
</svg>
